<mxfile host="Electron" agent="Mozilla/5.0 (X11; Linux x86_64) AppleWebKit/537.36 (KHTML, like Gecko) draw.io/24.7.17 Chrome/128.0.6613.36 Electron/32.0.1 Safari/537.36" version="24.7.17">
  <diagram id="C5RBs43oDa-KdzZeNtuy" name="Page-1">
    <mxGraphModel dx="1434" dy="835" grid="1" gridSize="10" guides="1" tooltips="1" connect="1" arrows="1" fold="1" page="1" pageScale="1" pageWidth="827" pageHeight="1169" math="0" shadow="0">
      <root>
        <mxCell id="WIyWlLk6GJQsqaUBKTNV-0" />
        <mxCell id="WIyWlLk6GJQsqaUBKTNV-1" parent="WIyWlLk6GJQsqaUBKTNV-0" />
        <mxCell id="WIyWlLk6GJQsqaUBKTNV-2" value="" style="rounded=0;html=1;jettySize=auto;orthogonalLoop=1;fontSize=11;endArrow=block;endFill=0;endSize=8;strokeWidth=1;shadow=0;labelBackgroundColor=none;edgeStyle=orthogonalEdgeStyle;" parent="WIyWlLk6GJQsqaUBKTNV-1" target="WIyWlLk6GJQsqaUBKTNV-6" edge="1">
          <mxGeometry relative="1" as="geometry">
            <mxPoint x="220" y="120" as="sourcePoint" />
          </mxGeometry>
        </mxCell>
        <mxCell id="WIyWlLk6GJQsqaUBKTNV-4" value="Yes" style="rounded=0;html=1;jettySize=auto;orthogonalLoop=1;fontSize=11;endArrow=block;endFill=0;endSize=8;strokeWidth=1;shadow=0;labelBackgroundColor=none;edgeStyle=orthogonalEdgeStyle;" parent="WIyWlLk6GJQsqaUBKTNV-1" source="WIyWlLk6GJQsqaUBKTNV-6" edge="1">
          <mxGeometry y="20" relative="1" as="geometry">
            <mxPoint as="offset" />
            <mxPoint x="220" y="290" as="targetPoint" />
          </mxGeometry>
        </mxCell>
        <mxCell id="WIyWlLk6GJQsqaUBKTNV-5" value="No" style="edgeStyle=orthogonalEdgeStyle;rounded=0;html=1;jettySize=auto;orthogonalLoop=1;fontSize=11;endArrow=block;endFill=0;endSize=8;strokeWidth=1;shadow=0;labelBackgroundColor=none;" parent="WIyWlLk6GJQsqaUBKTNV-1" target="WIyWlLk6GJQsqaUBKTNV-7" edge="1">
          <mxGeometry y="10" relative="1" as="geometry">
            <mxPoint as="offset" />
            <mxPoint x="270" y="210" as="sourcePoint" />
          </mxGeometry>
        </mxCell>
        <mxCell id="WIyWlLk6GJQsqaUBKTNV-8" value="No" style="rounded=0;html=1;jettySize=auto;orthogonalLoop=1;fontSize=11;endArrow=block;endFill=0;endSize=8;strokeWidth=1;shadow=0;labelBackgroundColor=none;edgeStyle=orthogonalEdgeStyle;" parent="WIyWlLk6GJQsqaUBKTNV-1" source="WIyWlLk6GJQsqaUBKTNV-10" edge="1">
          <mxGeometry x="0.3333" y="20" relative="1" as="geometry">
            <mxPoint as="offset" />
            <mxPoint x="220" y="430" as="targetPoint" />
          </mxGeometry>
        </mxCell>
        <mxCell id="WIyWlLk6GJQsqaUBKTNV-9" value="Yes" style="edgeStyle=orthogonalEdgeStyle;rounded=0;html=1;jettySize=auto;orthogonalLoop=1;fontSize=11;endArrow=block;endFill=0;endSize=8;strokeWidth=1;shadow=0;labelBackgroundColor=none;" parent="WIyWlLk6GJQsqaUBKTNV-1" target="WIyWlLk6GJQsqaUBKTNV-12" edge="1">
          <mxGeometry y="10" relative="1" as="geometry">
            <mxPoint as="offset" />
            <mxPoint x="270" y="330" as="sourcePoint" />
          </mxGeometry>
        </mxCell>
        <mxCell id="x9c9kk4UkYuyg3JZt2lU-0" value="Stockage des tweets" style="shape=cylinder3;whiteSpace=wrap;html=1;boundedLbl=1;backgroundOutline=1;size=15;" vertex="1" parent="WIyWlLk6GJQsqaUBKTNV-1">
          <mxGeometry x="303" y="680" width="220" height="80" as="geometry" />
        </mxCell>
        <mxCell id="x9c9kk4UkYuyg3JZt2lU-6" style="edgeStyle=orthogonalEdgeStyle;rounded=0;orthogonalLoop=1;jettySize=auto;html=1;entryX=0.5;entryY=0;entryDx=0;entryDy=0;" edge="1" parent="WIyWlLk6GJQsqaUBKTNV-1" source="x9c9kk4UkYuyg3JZt2lU-1" target="x9c9kk4UkYuyg3JZt2lU-5">
          <mxGeometry relative="1" as="geometry" />
        </mxCell>
        <mxCell id="x9c9kk4UkYuyg3JZt2lU-1" value="Base de tweets" style="rounded=1;whiteSpace=wrap;html=1;" vertex="1" parent="WIyWlLk6GJQsqaUBKTNV-1">
          <mxGeometry x="296" width="234" height="60" as="geometry" />
        </mxCell>
        <mxCell id="x9c9kk4UkYuyg3JZt2lU-10" style="edgeStyle=orthogonalEdgeStyle;rounded=0;orthogonalLoop=1;jettySize=auto;html=1;entryX=0.5;entryY=0;entryDx=0;entryDy=0;" edge="1" parent="WIyWlLk6GJQsqaUBKTNV-1" source="x9c9kk4UkYuyg3JZt2lU-5" target="x9c9kk4UkYuyg3JZt2lU-7">
          <mxGeometry relative="1" as="geometry" />
        </mxCell>
        <mxCell id="x9c9kk4UkYuyg3JZt2lU-11" style="edgeStyle=orthogonalEdgeStyle;rounded=0;orthogonalLoop=1;jettySize=auto;html=1;entryX=0.5;entryY=0;entryDx=0;entryDy=0;" edge="1" parent="WIyWlLk6GJQsqaUBKTNV-1" source="x9c9kk4UkYuyg3JZt2lU-5" target="x9c9kk4UkYuyg3JZt2lU-8">
          <mxGeometry relative="1" as="geometry" />
        </mxCell>
        <mxCell id="x9c9kk4UkYuyg3JZt2lU-12" style="edgeStyle=orthogonalEdgeStyle;rounded=0;orthogonalLoop=1;jettySize=auto;html=1;entryX=0.5;entryY=0;entryDx=0;entryDy=0;" edge="1" parent="WIyWlLk6GJQsqaUBKTNV-1" source="x9c9kk4UkYuyg3JZt2lU-5" target="x9c9kk4UkYuyg3JZt2lU-9">
          <mxGeometry relative="1" as="geometry" />
        </mxCell>
        <mxCell id="x9c9kk4UkYuyg3JZt2lU-5" value="Séparation, tweet par tweet" style="rhombus;whiteSpace=wrap;html=1;" vertex="1" parent="WIyWlLk6GJQsqaUBKTNV-1">
          <mxGeometry x="301" y="110" width="224" height="80" as="geometry" />
        </mxCell>
        <mxCell id="x9c9kk4UkYuyg3JZt2lU-17" style="edgeStyle=orthogonalEdgeStyle;rounded=0;orthogonalLoop=1;jettySize=auto;html=1;entryX=0;entryY=0;entryDx=0;entryDy=0;" edge="1" parent="WIyWlLk6GJQsqaUBKTNV-1" source="x9c9kk4UkYuyg3JZt2lU-7" target="x9c9kk4UkYuyg3JZt2lU-14">
          <mxGeometry relative="1" as="geometry" />
        </mxCell>
        <mxCell id="x9c9kk4UkYuyg3JZt2lU-7" value="Tweet" style="ellipse;whiteSpace=wrap;html=1;" vertex="1" parent="WIyWlLk6GJQsqaUBKTNV-1">
          <mxGeometry x="240" y="270" width="90" height="30" as="geometry" />
        </mxCell>
        <mxCell id="x9c9kk4UkYuyg3JZt2lU-15" style="edgeStyle=orthogonalEdgeStyle;rounded=0;orthogonalLoop=1;jettySize=auto;html=1;entryX=0.5;entryY=0;entryDx=0;entryDy=0;" edge="1" parent="WIyWlLk6GJQsqaUBKTNV-1" source="x9c9kk4UkYuyg3JZt2lU-8" target="x9c9kk4UkYuyg3JZt2lU-14">
          <mxGeometry relative="1" as="geometry" />
        </mxCell>
        <mxCell id="x9c9kk4UkYuyg3JZt2lU-8" value="Tweet" style="ellipse;whiteSpace=wrap;html=1;" vertex="1" parent="WIyWlLk6GJQsqaUBKTNV-1">
          <mxGeometry x="368" y="270" width="90" height="30" as="geometry" />
        </mxCell>
        <mxCell id="x9c9kk4UkYuyg3JZt2lU-16" style="edgeStyle=orthogonalEdgeStyle;rounded=0;orthogonalLoop=1;jettySize=auto;html=1;entryX=1;entryY=0;entryDx=0;entryDy=0;" edge="1" parent="WIyWlLk6GJQsqaUBKTNV-1" source="x9c9kk4UkYuyg3JZt2lU-9" target="x9c9kk4UkYuyg3JZt2lU-14">
          <mxGeometry relative="1" as="geometry" />
        </mxCell>
        <mxCell id="x9c9kk4UkYuyg3JZt2lU-9" value="Tweet" style="ellipse;whiteSpace=wrap;html=1;" vertex="1" parent="WIyWlLk6GJQsqaUBKTNV-1">
          <mxGeometry x="500" y="270" width="90" height="30" as="geometry" />
        </mxCell>
        <mxCell id="x9c9kk4UkYuyg3JZt2lU-24" style="edgeStyle=orthogonalEdgeStyle;rounded=0;orthogonalLoop=1;jettySize=auto;html=1;entryX=0.5;entryY=0;entryDx=0;entryDy=0;" edge="1" parent="WIyWlLk6GJQsqaUBKTNV-1" source="x9c9kk4UkYuyg3JZt2lU-14" target="x9c9kk4UkYuyg3JZt2lU-19">
          <mxGeometry relative="1" as="geometry" />
        </mxCell>
        <mxCell id="x9c9kk4UkYuyg3JZt2lU-25" style="edgeStyle=orthogonalEdgeStyle;rounded=0;orthogonalLoop=1;jettySize=auto;html=1;entryX=0.5;entryY=0;entryDx=0;entryDy=0;" edge="1" parent="WIyWlLk6GJQsqaUBKTNV-1" source="x9c9kk4UkYuyg3JZt2lU-14" target="x9c9kk4UkYuyg3JZt2lU-20">
          <mxGeometry relative="1" as="geometry" />
        </mxCell>
        <mxCell id="x9c9kk4UkYuyg3JZt2lU-26" style="edgeStyle=orthogonalEdgeStyle;rounded=0;orthogonalLoop=1;jettySize=auto;html=1;entryX=0.5;entryY=0;entryDx=0;entryDy=0;" edge="1" parent="WIyWlLk6GJQsqaUBKTNV-1" source="x9c9kk4UkYuyg3JZt2lU-14" target="x9c9kk4UkYuyg3JZt2lU-21">
          <mxGeometry relative="1" as="geometry" />
        </mxCell>
        <mxCell id="x9c9kk4UkYuyg3JZt2lU-27" style="edgeStyle=orthogonalEdgeStyle;rounded=0;orthogonalLoop=1;jettySize=auto;html=1;entryX=0.5;entryY=0;entryDx=0;entryDy=0;" edge="1" parent="WIyWlLk6GJQsqaUBKTNV-1" source="x9c9kk4UkYuyg3JZt2lU-14" target="x9c9kk4UkYuyg3JZt2lU-22">
          <mxGeometry relative="1" as="geometry" />
        </mxCell>
        <mxCell id="x9c9kk4UkYuyg3JZt2lU-28" style="edgeStyle=orthogonalEdgeStyle;rounded=0;orthogonalLoop=1;jettySize=auto;html=1;entryX=0.5;entryY=0;entryDx=0;entryDy=0;" edge="1" parent="WIyWlLk6GJQsqaUBKTNV-1" source="x9c9kk4UkYuyg3JZt2lU-14" target="x9c9kk4UkYuyg3JZt2lU-23">
          <mxGeometry relative="1" as="geometry" />
        </mxCell>
        <mxCell id="x9c9kk4UkYuyg3JZt2lU-14" value="Extraction données utiles" style="rhombus;whiteSpace=wrap;html=1;" vertex="1" parent="WIyWlLk6GJQsqaUBKTNV-1">
          <mxGeometry x="301" y="370" width="224" height="80" as="geometry" />
        </mxCell>
        <mxCell id="x9c9kk4UkYuyg3JZt2lU-35" style="edgeStyle=orthogonalEdgeStyle;rounded=0;orthogonalLoop=1;jettySize=auto;html=1;" edge="1" parent="WIyWlLk6GJQsqaUBKTNV-1" source="x9c9kk4UkYuyg3JZt2lU-19" target="x9c9kk4UkYuyg3JZt2lU-0">
          <mxGeometry relative="1" as="geometry" />
        </mxCell>
        <mxCell id="x9c9kk4UkYuyg3JZt2lU-19" value="Hashtags" style="ellipse;whiteSpace=wrap;html=1;" vertex="1" parent="WIyWlLk6GJQsqaUBKTNV-1">
          <mxGeometry x="155" y="610" width="80" height="30" as="geometry" />
        </mxCell>
        <mxCell id="x9c9kk4UkYuyg3JZt2lU-20" value="Auteur" style="ellipse;whiteSpace=wrap;html=1;" vertex="1" parent="WIyWlLk6GJQsqaUBKTNV-1">
          <mxGeometry x="264" y="540" width="80" height="30" as="geometry" />
        </mxCell>
        <mxCell id="x9c9kk4UkYuyg3JZt2lU-31" style="edgeStyle=orthogonalEdgeStyle;rounded=0;orthogonalLoop=1;jettySize=auto;html=1;" edge="1" parent="WIyWlLk6GJQsqaUBKTNV-1" source="x9c9kk4UkYuyg3JZt2lU-21" target="x9c9kk4UkYuyg3JZt2lU-0">
          <mxGeometry relative="1" as="geometry" />
        </mxCell>
        <mxCell id="x9c9kk4UkYuyg3JZt2lU-21" value="Mentions" style="ellipse;whiteSpace=wrap;html=1;" vertex="1" parent="WIyWlLk6GJQsqaUBKTNV-1">
          <mxGeometry x="372" y="540" width="80" height="30" as="geometry" />
        </mxCell>
        <mxCell id="x9c9kk4UkYuyg3JZt2lU-22" value="Topics&lt;span style=&quot;color: rgba(0, 0, 0, 0); font-family: monospace; font-size: 0px; text-align: start; text-wrap: nowrap;&quot;&gt;%3CmxGraphModel%3E%3Croot%3E%3CmxCell%20id%3D%220%22%2F%3E%3CmxCell%20id%3D%221%22%20parent%3D%220%22%2F%3E%3CmxCell%20id%3D%222%22%20value%3D%22Mentions%22%20style%3D%22ellipse%3BwhiteSpace%3Dwrap%3Bhtml%3D1%3B%22%20vertex%3D%221%22%20parent%3D%221%22%3E%3CmxGeometry%20x%3D%22378%22%20y%3D%22540%22%20width%3D%2280%22%20height%3D%2230%22%20as%3D%22geometry%22%2F%3E%3C%2FmxCell%3E%3C%2Froot%3E%3C%2FmxGraphModel%3E&lt;/span&gt;" style="ellipse;whiteSpace=wrap;html=1;" vertex="1" parent="WIyWlLk6GJQsqaUBKTNV-1">
          <mxGeometry x="484" y="540" width="80" height="30" as="geometry" />
        </mxCell>
        <mxCell id="x9c9kk4UkYuyg3JZt2lU-23" value="Sentiment" style="ellipse;whiteSpace=wrap;html=1;" vertex="1" parent="WIyWlLk6GJQsqaUBKTNV-1">
          <mxGeometry x="589" y="610" width="80" height="30" as="geometry" />
        </mxCell>
        <mxCell id="x9c9kk4UkYuyg3JZt2lU-32" style="edgeStyle=orthogonalEdgeStyle;rounded=0;orthogonalLoop=1;jettySize=auto;html=1;entryX=0.5;entryY=0;entryDx=0;entryDy=0;entryPerimeter=0;" edge="1" parent="WIyWlLk6GJQsqaUBKTNV-1" source="x9c9kk4UkYuyg3JZt2lU-20" target="x9c9kk4UkYuyg3JZt2lU-0">
          <mxGeometry relative="1" as="geometry" />
        </mxCell>
        <mxCell id="x9c9kk4UkYuyg3JZt2lU-33" style="edgeStyle=orthogonalEdgeStyle;rounded=0;orthogonalLoop=1;jettySize=auto;html=1;entryX=0.5;entryY=0;entryDx=0;entryDy=0;entryPerimeter=0;" edge="1" parent="WIyWlLk6GJQsqaUBKTNV-1" source="x9c9kk4UkYuyg3JZt2lU-22" target="x9c9kk4UkYuyg3JZt2lU-0">
          <mxGeometry relative="1" as="geometry" />
        </mxCell>
        <mxCell id="x9c9kk4UkYuyg3JZt2lU-36" style="edgeStyle=orthogonalEdgeStyle;rounded=0;orthogonalLoop=1;jettySize=auto;html=1;entryX=0.5;entryY=0;entryDx=0;entryDy=0;entryPerimeter=0;" edge="1" parent="WIyWlLk6GJQsqaUBKTNV-1" source="x9c9kk4UkYuyg3JZt2lU-23" target="x9c9kk4UkYuyg3JZt2lU-0">
          <mxGeometry relative="1" as="geometry" />
        </mxCell>
        <mxCell id="x9c9kk4UkYuyg3JZt2lU-37" value="" style="shape=flexArrow;endArrow=classic;html=1;rounded=0;exitX=0.5;exitY=1;exitDx=0;exitDy=0;exitPerimeter=0;entryX=0.5;entryY=0;entryDx=0;entryDy=0;" edge="1" parent="WIyWlLk6GJQsqaUBKTNV-1" source="x9c9kk4UkYuyg3JZt2lU-0" target="x9c9kk4UkYuyg3JZt2lU-38">
          <mxGeometry width="50" height="50" relative="1" as="geometry">
            <mxPoint x="480" y="950" as="sourcePoint" />
            <mxPoint x="413" y="920" as="targetPoint" />
          </mxGeometry>
        </mxCell>
        <mxCell id="x9c9kk4UkYuyg3JZt2lU-38" value="Analyse des tweets, affichage des résultats" style="shape=process;whiteSpace=wrap;html=1;backgroundOutline=1;" vertex="1" parent="WIyWlLk6GJQsqaUBKTNV-1">
          <mxGeometry x="238" y="870" width="350" height="40" as="geometry" />
        </mxCell>
        <mxCell id="x9c9kk4UkYuyg3JZt2lU-39" value="" style="ellipse;whiteSpace=wrap;html=1;fillColor=none;" vertex="1" parent="WIyWlLk6GJQsqaUBKTNV-1">
          <mxGeometry x="470" y="505" width="220" height="175" as="geometry" />
        </mxCell>
        <mxCell id="x9c9kk4UkYuyg3JZt2lU-40" value="Utilisation possible de NLP" style="shape=parallelogram;perimeter=parallelogramPerimeter;whiteSpace=wrap;html=1;fixedSize=1;" vertex="1" parent="WIyWlLk6GJQsqaUBKTNV-1">
          <mxGeometry x="610" y="760" width="180" height="80" as="geometry" />
        </mxCell>
        <mxCell id="x9c9kk4UkYuyg3JZt2lU-41" value="" style="endArrow=classic;html=1;rounded=0;exitX=1;exitY=1;exitDx=0;exitDy=0;entryX=0.5;entryY=0;entryDx=0;entryDy=0;" edge="1" parent="WIyWlLk6GJQsqaUBKTNV-1" source="x9c9kk4UkYuyg3JZt2lU-39" target="x9c9kk4UkYuyg3JZt2lU-40">
          <mxGeometry relative="1" as="geometry">
            <mxPoint x="640" y="700" as="sourcePoint" />
            <mxPoint x="740" y="700" as="targetPoint" />
          </mxGeometry>
        </mxCell>
        <mxCell id="x9c9kk4UkYuyg3JZt2lU-42" value="Zoom" style="edgeLabel;resizable=0;html=1;;align=center;verticalAlign=middle;" connectable="0" vertex="1" parent="x9c9kk4UkYuyg3JZt2lU-41">
          <mxGeometry relative="1" as="geometry" />
        </mxCell>
      </root>
    </mxGraphModel>
  </diagram>
</mxfile>
